<svg height="512pt" viewBox="0 -34 512.00054 512" width="512pt" xmlns="http://www.w3.org/2000/svg" xmlns:xlink="http://www.w3.org/1999/xlink"><linearGradient id="a"><stop offset="0" stop-color="#662d91"/><stop offset=".437" stop-color="#3873b3"/><stop offset="1" stop-color="#00c9dd"/></linearGradient><linearGradient id="b" gradientTransform="matrix(1.077793 0 0 -1.077793 .000269 468.257019)" gradientUnits="userSpaceOnUse" x1="70.2273" x2="463.5783" xlink:href="#a" y1="451.1446" y2="57.8015"/><linearGradient id="c" gradientTransform="matrix(1.077793 0 0 -1.077793 .000269 468.257019)" gradientUnits="userSpaceOnUse" x1="-36.6188" x2="356.7243" xlink:href="#a" y1="344.2985" y2="-49.0446"/><linearGradient id="d" gradientTransform="matrix(1.077793 0 0 -1.077793 .000269 468.257019)" gradientUnits="userSpaceOnUse" x1="133.6013" x2="526.9444" xlink:href="#a" y1="514.5186" y2="121.1755"/><path d="m376.941406 74.867188 55.96875-60.421876c3.265625-3.398437 3.15625-8.800781-.242187-12.066406-3.394531-3.261718-8.796875-3.15625-12.0625.242188-.070313.070312-.140625.144531-.207031.21875l-61.4375 66.335937-59.621094 59.613281c-3.332032 3.332032-3.332032 8.734376 0 12.066407l4.0625 4.070312-23.519532 22.339844c-1.585937 1.503906-3.691406 2.339844-5.878906 2.335937h-34.984375c-.898437.039063-1.796875.125-2.6875.257813l-28.40625-32.800781 4.734375-4.734375c3.332032-3.335938 3.332032-8.734375 0-12.066407l-59.621094-59.5625-52.90625-57.769531c-3.179687-3.476562-8.578124-3.71875-12.054687-.539062-3.480469 3.183593-3.71875 8.582031-.539063 12.058593l47.511719 51.898438-132.550781 132.527344c-3.332031 3.332031-3.332031 8.734375 0 12.066406l59.730469 59.734375c3.332031 3.328125 8.734375 3.328125 12.066406 0l2.5-2.503906 37.792969 37.792969-5.742188 5.445312c-11.144531 10.417969-11.730468 27.898438-1.3125 39.039062.421875.453126.859375.890626 1.3125 1.3125 5.578125 5.242188 12.960938 8.140626 20.617188 8.097657h.117187c.074219 7.546875 3.234375 14.738281 8.738281 19.898437 5.582032 5.238282 12.957032 8.132813 20.609376 8.089844h.125c.070312 7.546875 3.222656 14.734375 8.730468 19.890625 5.582032 5.238281 12.957032 8.132813 20.609375 8.089844h.117188c.070312 7.550781 3.230469 14.742187 8.738281 19.902343 11.625 10.78125 29.59375 10.78125 41.214844 0l7.339844-6.964843 6.894531 7.058593c5.546875 5.191407 12.878906 8.054688 20.476562 7.996094 16.074219.027344 29.433594-12.371094 30.601563-28.398437 7.808594-.128907 15.261718-3.269531 20.804687-8.773438 5.527344-5.175781 8.683594-12.394531 8.738281-19.96875 7.945313-.03125 15.578126-3.105469 21.332032-8.59375 5.488281-5.148437 8.644531-12.316406 8.726562-19.84375h.222656c7.527344.046875 14.789063-2.792969 20.285157-7.9375 5.496093-5.132812 8.621093-12.3125 8.632812-19.832031-.007812-7.691406-3.203125-15.03125-8.832031-20.273438l-.175781-.179687 43.601562-41.402344 10.589844 10.589844c3.332031 3.332031 8.734375 3.332031 12.066406 0l59.730469-59.734375c3.332031-3.332031 3.332031-8.730469 0-12.0625zm-356.34375 130.039062 126.289063-126.292969 47.667969 47.675781-126.292969 126.28125zm100 134.488281c-4.304687-3.914062-4.621094-10.582031-.703125-14.886719.222657-.246093.457031-.476562.703125-.703124l34.371094-32.636719c4.992188-4.644531 12.722656-4.644531 17.714844 0 4.308594 3.921875 4.621094 10.589843.699218 14.898437-.222656.242188-.457031.476563-.699218.699219l-34.378906 32.640625c-4.996094 4.628906-12.71875 4.625-17.707032-.011719zm29.464844 27.980469c-4.308594-3.921875-4.621094-10.589844-.699219-14.898438.21875-.242187.453125-.476562.699219-.699218l34.371094-32.628906c4.992187-4.644532 12.722656-4.644532 17.714844 0 4.304687 3.914062 4.617187 10.582031.703124 14.886718-.222656.242188-.460937.476563-.703124.699219l-34.371094 32.640625c-5.027344 4.554688-12.6875 4.554688-17.714844 0zm29.464844 27.972656c-4.308594-3.921875-4.621094-10.59375-.699219-14.898437.222656-.246094.457031-.480469.699219-.703125l34.371094-32.636719c4.996093-4.640625 12.726562-4.640625 17.722656 0 4.308594 3.933594 4.609375 10.617187.675781 14.925781-.214844.234375-.441406.457032-.675781.671875l-34.378906 32.640625c-4.992188 4.644532-12.722657 4.644532-17.714844 0zm47.179687 28.003906c-4.988281 4.652344-12.726562 4.652344-17.714843 0-4.304688-3.914062-4.621094-10.578124-.703126-14.882812.222657-.246094.457032-.480469.703126-.703125l34.378906-32.65625c5.023437-4.558594 12.683594-4.558594 17.707031 0 4.308594 3.917969 4.621094 10.589844.699219 14.898437-.222656.242188-.457032.476563-.699219.699219zm55.753907-.210937c-4.898438 4.757813-12.621094 4.984375-17.789063.519531l-6.503906-6.644531 14.660156-13.917969c1.210937-1.175781 2.316406-2.457031 3.300781-3.824218l8.125 8.125c1.742188 1.605468 2.714844 3.882812 2.671875 6.253906-.167969 3.625-1.78125 7.027344-4.480469 9.453125zm89.460937-100.5625c2.21875 2.027344 3.492187 4.886719 3.515625 7.890625-.007812 2.84375-1.199219 5.554688-3.285156 7.484375-4.976563 4.53125-12.617188 4.429687-17.472656-.230469l-26.328126-24.988281c-3.417968-3.25-8.824218-3.113281-12.078124.304687-3.25 3.417969-3.113282 8.828126.304687 12.078126l26.316406 24.996093c2.164063 2.011719 3.398438 4.832031 3.414063 7.789063-.09375 3.246094-1.570313 6.296875-4.0625 8.378906-4.992188 4.652344-12.726563 4.652344-17.714844 0l-24.117188-22.894531c-3.417968-3.246094-8.820312-3.101563-12.0625.316406-3.246093 3.417969-3.105468 8.820313.3125 12.066406l24.117188 22.894531c2.164062 2.015626 3.398438 4.839844 3.414062 7.796876-.09375 3.246093-1.574218 6.296874-4.0625 8.382812-4.222656 4.515625-11.308593 4.753906-15.824218.53125-.085938-.078125-.171875-.160156-.253906-.242188l-8.53125-8.535156-6.300782-6.296875c-.59375-6.710937-3.628906-12.972656-8.53125-17.59375-5.609375-5.265625-13.035156-8.160156-20.726562-8.082031-.066406-7.546875-3.222656-14.738281-8.730469-19.898438-5.613281-5.265624-13.039063-8.160156-20.734375-8.082031-.070312-7.546875-3.230469-14.734375-8.738281-19.890625-5.609375-5.261718-13.035157-8.15625-20.726563-8.082031-.070312-7.546875-3.226562-14.738281-8.738281-19.898437-11.625-10.777344-29.589844-10.777344-41.214844 0l-16.210937 15.429687-38.007813-38.101563 106.945313-106.945312 24.601562 28.441406-32.289062 30.667969c-8.878906 8.335937-9.316406 22.289063-.976563 31.167969.3125.332031.640625.660156.976563.976562 8.878906 8.257813 22.53125 8.574219 31.785156.734375l37.65625-22.1875c3.332031-1.960937 7.5625-1.441406 10.316406 1.269531l75.269532 74.238282c.421874.902344 1 1.726562 1.707031 2.425781l20.292969 19.277344 5.835937 5.75.109375-.109375zm-.734375-24.433594-91.304688-90.101562c-8.261718-8.148438-20.976562-9.714844-30.972656-3.820313l-38.398437 22.613282-1.546875 1.167968c-2.585938 2.308594-6.496094 2.308594-9.085938 0-2.046875-1.863281-2.195312-5.03125-.332031-7.074218.105469-.117188.214844-.226563.332031-.332032l33.277344-31.574218c1.582031-1.511719 3.683594-2.355469 5.871094-2.351563h34.988281c6.558594.011719 12.871094-2.503906 17.628906-7.023437l23.710938-22.527344 99.097656 99.964844zm72.535156-37.039062-126.292968-126.292969 47.675781-47.664062 126.28125 126.289062zm0 0" fill="url(#b)"/><path d="m85.328125 204.90625c0 9.425781-7.640625 17.066406-17.066406 17.066406-9.421875 0-17.0625-7.640625-17.0625-17.066406s7.640625-17.066406 17.0625-17.066406c9.425781 0 17.066406 7.640625 17.066406 17.066406zm0 0" fill="url(#c)"/><path d="m460.785156 213.4375c0 9.425781-7.640625 17.066406-17.0625 17.066406-9.425781 0-17.066406-7.640625-17.066406-17.066406s7.640625-17.066406 17.066406-17.066406c9.421875 0 17.0625 7.640625 17.0625 17.066406zm0 0" fill="url(#d)"/></svg>