<svg height="512pt" viewBox="-34 0 512 512.00109" width="512pt" xmlns="http://www.w3.org/2000/svg" xmlns:xlink="http://www.w3.org/1999/xlink"><linearGradient id="a"><stop offset="0" stop-color="#662d91"/><stop offset=".437" stop-color="#3873b3"/><stop offset="1" stop-color="#00c9dd"/></linearGradient><linearGradient id="b" gradientTransform="matrix(1.07782 0 0 -1.07782 -34.132932 519.509171)" gradientUnits="userSpaceOnUse" x1="59.0219" x2="444.0123" xlink:href="#a" y1="436.1188" y2="51.1362"/><linearGradient id="c" gradientTransform="matrix(1.07782 0 0 -1.07782 -34.132932 519.509171)" gradientUnits="userSpaceOnUse" x1="-58.7052" x2="326.2852" xlink:href="#a" y1="318.3916" y2="-66.5909"/><linearGradient id="d" gradientTransform="matrix(1.07782 0 0 -1.07782 -34.132932 519.509171)" gradientUnits="userSpaceOnUse" x1="-21.176" x2="363.8065" xlink:href="#a" y1="355.9209" y2="-29.0696"/><linearGradient id="e" gradientTransform="matrix(1.07782 0 0 -1.07782 -34.132932 519.509171)" gradientUnits="userSpaceOnUse" x1="-33.0517" x2="351.9308" xlink:href="#a" y1="344.0452" y2="-40.9453"/><linearGradient id="f" gradientTransform="matrix(1.07782 0 0 -1.07782 -34.132932 519.509171)" gradientUnits="userSpaceOnUse" x1="-44.9274" x2="340.0551" xlink:href="#a" y1="332.1695" y2="-52.821"/><linearGradient id="g" gradientTransform="matrix(1.07782 0 0 -1.07782 -34.132932 519.509171)" gradientUnits="userSpaceOnUse" x1="153.3961" x2="538.3786" xlink:href="#a" y1="530.4929" y2="145.5104"/><linearGradient id="h" gradientTransform="matrix(1.07782 0 0 -1.07782 -34.132932 519.509171)" gradientUnits="userSpaceOnUse" x1="188.6532" x2="573.6357" xlink:href="#a" y1="565.7501" y2="180.7596"/><linearGradient id="i" gradientTransform="matrix(1.07782 0 0 -1.07782 -34.132932 519.509171)" gradientUnits="userSpaceOnUse" x1="68.283" x2="453.2735" xlink:href="#a" y1="445.3799" y2="60.3974"/><linearGradient id="j" gradientTransform="matrix(1.07782 0 0 -1.07782 -34.132932 519.509171)" gradientUnits="userSpaceOnUse" x1="-52.1293" x2="332.8611" xlink:href="#a" y1="324.9676" y2="-60.015"/><linearGradient id="k" gradientTransform="matrix(1.07782 0 0 -1.07782 -34.132932 519.509171)" gradientUnits="userSpaceOnUse" x1="-16.8241" x2="368.1584" xlink:href="#a" y1="360.2728" y2="-24.7097"/><linearGradient id="l" gradientTransform="matrix(1.07782 0 0 -1.07782 -34.132932 519.509171)" gradientUnits="userSpaceOnUse" x1="68.2863" x2="453.2689" xlink:href="#a" y1="445.3832" y2="60.3927"/><linearGradient id="m" gradientTransform="matrix(1.07782 0 0 -1.07782 -34.132932 519.509171)" gradientUnits="userSpaceOnUse" x1="42.5529" x2="427.5354" xlink:href="#a" y1="419.6498" y2="34.6673"/><path d="m221.867188 96.246094c-65.835938-.035156-119.277344 53.222656-119.46875 119.058594.265624 12.777343 2.382812 25.445312 6.28125 37.613281 5.753906 12.949219 12.414062 25.480469 19.925781 37.496093 17.46875 30.4375 43.855469 76.46875 43.855469 93.585938 0 4.710938 3.820312 8.53125 8.53125 8.53125h81.75c4.710937 0 8.53125-3.820312 8.53125-8.53125 0-17.117188 26.386718-63.148438 43.855468-93.585938 7.511719-12.015624 14.167969-24.546874 19.925782-37.496093 3.898437-12.167969 6.015624-24.839844 6.28125-37.613281-.191407-65.835938-53.632813-119.09375-119.46875-119.058594zm97.007812 151.21875c-5.550781 11.808594-11.742188 23.300781-18.554688 34.425781-22.003906 38.40625-40.710937 72.242187-45.128906 93.574219h-66.605468c-4.417969-21.332032-23.125-55.167969-45.132813-93.542969-6.824219-11.132813-13.03125-22.636719-18.59375-34.457031-3.292969-10.414063-5.109375-21.242188-5.394531-32.160156 0-56.554688 45.847656-102.402344 102.402344-102.402344 56.554687 0 102.398437 45.847656 102.398437 102.402344-.285156 10.921874-2.097656 21.746093-5.390625 32.160156zm0 0" fill="url(#b)"/><path d="m251.734375 488.210938-11.664063 6.722656h-36.40625l-11.664062-6.722656c-4.085938-2.359376-9.308594-.957032-11.664062 3.128906-2.355469 4.085937-.953126 9.3125 3.132812 11.667968l13.652344 7.859376c1.296875.746093 2.769531 1.136718 4.265625 1.132812h40.960937c1.496094.003906 2.96875-.386719 4.269532-1.132812l13.652343-7.859376c4.085938-2.355468 5.488281-7.582031 3.132813-11.667968-2.355469-4.085938-7.582032-5.488282-11.667969-3.128906zm0 0" fill="url(#c)"/><path d="m255.148438 402.816406-68.269532 6.828125c-4.6875.46875-8.109375 4.652344-7.636718 9.339844.4375 4.363281 4.109374 7.683594 8.492187 7.679687.28125 0 .5625 0 .851563-.042968l68.269531-6.824219c4.6875-.472656 8.109375-4.65625 7.636719-9.34375-.472657-4.691406-4.65625-8.109375-9.34375-7.636719zm0 0" fill="url(#d)"/><path d="m255.148438 428.417969-68.269532 6.824219c-4.6875.472656-8.109375 4.65625-7.636718 9.34375.4375 4.359374 4.109374 7.679687 8.492187 7.679687.28125 0 .5625 0 .851563-.042969l68.269531-6.828125c4.6875-.46875 8.109375-4.652343 7.636719-9.34375-.472657-4.6875-4.65625-8.105469-9.34375-7.632812zm0 0" fill="url(#e)"/><path d="m255.148438 454.015625-68.269532 6.828125c-4.6875.46875-8.109375 4.652344-7.636718 9.339844.4375 4.363281 4.109374 7.683594 8.492187 7.683594.28125 0 .5625 0 .851563-.042969l68.269531-6.828125c4.6875-.472656 8.109375-4.65625 7.636719-9.34375-.472657-4.6875-4.65625-8.109375-9.34375-7.636719zm0 0" fill="url(#f)"/><path d="m221.867188 0c-4.714844 0-8.535157 3.820312-8.535157 8.53125v59.734375c0 4.714844 3.824219 8.535156 8.535157 8.535156 4.710937 0 8.53125-3.820312 8.53125-8.535156v-59.734375c.003906-4.710938-3.820313-8.53125-8.53125-8.53125zm0 0" fill="url(#g)"/><path d="m366.6875 64.980469-42.242188 42.242187c-3.386718 3.273438-3.480468 8.675782-.207031 12.066406 3.273438 3.386719 8.675781 3.480469 12.066407.207032.070312-.066406.140624-.136719.207031-.207032l42.242187-42.242187c3.390625-3.273437 3.484375-8.675781.207032-12.066406-3.273438-3.386719-8.675782-3.480469-12.066407-.207031-.070312.066406-.140625.136718-.207031.207031zm0 0" fill="url(#h)"/><path d="m443.734375 221.867188c0-4.714844-3.820313-8.535157-8.535156-8.535157h-59.734375c-4.710938 0-8.53125 3.824219-8.53125 8.535157 0 4.714843 3.820312 8.53125 8.53125 8.53125h59.734375c4.714843 0 8.535156-3.820313 8.535156-8.53125zm0 0" fill="url(#g)"/><path d="m324.445312 324.445312c-3.332031 3.332032-3.332031 8.734376 0 12.066407l42.242188 42.238281c3.386719 3.277344 8.789062 3.183594 12.0625-.207031 3.195312-3.308594 3.195312-8.550781 0-11.859375l-42.238281-42.238282c-3.332031-3.332031-8.734375-3.332031-12.066407 0zm0 0" fill="url(#i)"/><path d="m71.015625 381.25c2.261719 0 4.433594-.898438 6.03125-2.5l42.242187-42.238281c3.273438-3.390625 3.179688-8.792969-.210937-12.066407-3.308594-3.195312-8.550781-3.195312-11.855469 0l-42.242187 42.238282c-3.332031 3.335937-3.332031 8.738281.003906 12.070312 1.597656 1.597656 3.769531 2.496094 6.03125 2.496094zm0 0" fill="url(#j)"/><path d="m0 221.867188c0 4.714843 3.820312 8.53125 8.535156 8.53125h59.730469c4.714844 0 8.535156-3.820313 8.535156-8.53125 0-4.714844-3.820312-8.535157-8.535156-8.535157h-59.730469c-4.714844 0-8.535156 3.820313-8.535156 8.535157zm0 0" fill="url(#k)"/><path d="m113.253906 121.789062c4.714844-.003906 8.53125-3.824218 8.53125-8.539062 0-2.261719-.898437-4.429688-2.496094-6.03125l-42.242187-42.238281c-3.273437-3.390625-8.675781-3.484375-12.066406-.210938-3.386719 3.277344-3.480469 8.675781-.207031 12.066407.066406.070312.136718.140624.207031.210937l42.242187 42.238281c1.59375 1.609375 3.765625 2.507813 6.03125 2.503906zm0 0" fill="url(#l)"/><path d="m270.371094 230.84375-48.503906 16.164062-48.503907-16.164062c-4.46875-1.488281-9.300781.929688-10.789062 5.398438-.5625 1.6875-.582031 3.503906-.0625 5.199218l34.132812 110.933594c1.386719 4.507812 6.160157 7.035156 10.667969 5.648438 4.503906-1.382813 7.03125-6.160157 5.648438-10.664063l-29.261719-95.089844 35.472656 11.820313c1.75.585937 3.644531.585937 5.394531 0l35.472656-11.820313-29.261718 95.089844c-1.386719 4.503906 1.144531 9.28125 5.648437 10.664063 4.507813 1.386718 9.28125-1.140626 10.667969-5.648438l34.132812-110.933594c1.382813-4.503906-1.148437-9.277344-5.65625-10.660156-1.699218-.519531-3.515624-.5-5.199218.0625zm0 0" fill="url(#m)"/></svg>