<svg height="512pt" viewBox="0 -128 512 512" width="512pt" xmlns="http://www.w3.org/2000/svg" xmlns:xlink="http://www.w3.org/1999/xlink"><linearGradient id="a"><stop offset="0" stop-color="#662d91"/><stop offset=".437" stop-color="#3873b3"/><stop offset="1" stop-color="#00c9dd"/></linearGradient><linearGradient id="b" gradientTransform="matrix(1.07782 0 0 -1.07782 0 374.44281)" gradientUnits="userSpaceOnUse" x1="20.7827" x2="454.3453" xlink:href="#a" y1="445.3829" y2="11.8203"/><linearGradient id="c" gradientTransform="matrix(1.07782 0 0 -1.07782 0 374.44281)" gradientUnits="userSpaceOnUse" x1="-38.596" x2="394.9666" xlink:href="#a" y1="386.0042" y2="-47.5584"/><linearGradient id="d" gradientTransform="matrix(1.07782 0 0 -1.07782 0 374.44281)" gradientUnits="userSpaceOnUse" x1="80.1614" x2="513.724" xlink:href="#a" y1="504.7616" y2="71.199"/><linearGradient id="e" gradientTransform="matrix(1.07782 0 0 -1.07782 0 374.44281)" gradientUnits="userSpaceOnUse" x1="20.7977" x2="454.3603" xlink:href="#a" y1="445.3979" y2="11.8353"/><path d="m503.46875 0h-494.9375c-4.710938 0-8.53125 3.820312-8.53125 8.53125v238.933594c0 4.714844 3.820312 8.535156 8.53125 8.535156h494.9375c4.710938 0 8.53125-3.820312 8.53125-8.535156v-238.933594c0-4.710938-3.820312-8.53125-8.53125-8.53125zm-8.535156 238.933594h-477.867188v-221.867188h477.867188zm0 0" fill="url(#b)"/><path d="m79.300781 219.367188c1.597657 1.601562 3.769531 2.5 6.03125 2.5h85.335938c4.710937 0 8.53125-3.820313 8.53125-8.535157 0-4.710937-3.820313-8.53125-8.53125-8.53125h-81.800781l-37.667969-37.667969v-78.265624l37.667969-37.667969h81.800781c4.710937 0 8.53125-3.820313 8.53125-8.53125 0-4.714844-3.820313-8.535157-8.53125-8.535157h-85.335938c-2.261719 0-4.433593.902344-6.03125 2.5l-42.667969 42.667969c-1.597656 1.597657-2.5 3.769531-2.5 6.03125v85.335938c0 2.261719.902344 4.429687 2.5 6.03125zm0 0" fill="url(#c)"/><path d="m341.332031 51.199219h81.800781l37.667969 37.667969v78.269531l-37.667969 37.664062h-81.800781c-4.710937 0-8.53125 3.820313-8.53125 8.535157 0 4.710937 3.820313 8.53125 8.53125 8.53125h85.335938c2.261719 0 4.433593-.898438 6.03125-2.5l42.667969-42.667969c1.597656-1.597657 2.5-3.769531 2.5-6.03125v-85.335938c0-2.261719-.902344-4.433593-2.5-6.03125l-42.667969-42.667969c-1.597657-1.597656-3.769531-2.5-6.03125-2.5h-85.335938c-4.710937 0-8.53125 3.820313-8.53125 8.535157 0 4.710937 3.820313 8.53125 8.53125 8.53125zm0 0" fill="url(#d)"/><path d="m256 221.867188c51.839844 0 93.867188-42.027344 93.867188-93.867188s-42.027344-93.867188-93.867188-93.867188-93.867188 42.027344-93.867188 93.867188c.0625 51.816406 42.050782 93.804688 93.867188 93.867188zm0-170.667969c42.414062 0 76.800781 34.386719 76.800781 76.800781 0 42.417969-34.386719 76.800781-76.800781 76.800781s-76.800781-34.382812-76.800781-76.800781c.054687-42.394531 34.40625-76.746094 76.800781-76.800781zm0 0" fill="url(#e)"/><path d="m264.535156 162.132812h-42.667968c-4.714844 0-8.535157 3.820313-8.535157 8.535157 0 4.710937 3.824219 8.53125 8.535157 8.53125h25.601562v8.535156c0 4.710937 3.820312 8.53125 8.53125 8.53125 4.714844 0 8.535156-3.820313 8.535156-8.53125v-8.535156c17.636719 1.078125 32.859375-12.238281 34.132813-29.867188-1.273438-17.625-16.496094-30.945312-34.132813-29.867187h-17.066406c-9.25 0-17.066406-5.859375-17.066406-12.796875s7.816406-12.800781 17.066406-12.800781h42.664062c4.714844 0 8.535157-3.820313 8.535157-8.535157 0-4.710937-3.820313-8.53125-8.535157-8.53125h-25.597656v-8.535156c0-4.710937-3.824218-8.53125-8.535156-8.53125s-8.53125 3.820313-8.53125 8.53125v8.535156c-17.640625-1.078125-32.863281 12.238281-34.136719 29.867188 1.273438 17.625 16.496094 30.945312 34.136719 29.863281h17.066406c9.25 0 17.066406 5.863281 17.066406 12.800781s-7.816406 12.800781-17.066406 12.800781zm0 0" fill="url(#b)"/></svg>