<svg height="512pt" viewBox="0 -109 512 512" width="512pt" xmlns="http://www.w3.org/2000/svg"><linearGradient id="a" gradientTransform="matrix(1.049339 0 0 -1.049339 0 407.150946)" gradientUnits="userSpaceOnUse" x1="75.3206" x2="370.0838" y1="380.6679" y2="85.9046"><stop offset="0" stop-color="#662d91"/><stop offset=".437" stop-color="#3873b3"/><stop offset="1" stop-color="#00c9dd"/></linearGradient><path d="m511.707031 157.285156c-.183593-.714844-.46875-1.402344-.839843-2.039062l-39.15625-67.113282-19.605469-33.574218c-1.496094-2.59375-4.261719-4.191406-7.253907-4.199219h-100.71875v-41.964844c0-4.636719-3.757812-8.394531-8.394531-8.394531h-285.378906c-4.632813 0-8.390625 3.757812-8.390625 8.394531v142.6875h-8.394531c-4.636719 0-8.394531 3.757813-8.394531 8.394531v50.359376h-16.785157c-4.636719 0-8.394531 3.757812-8.394531 8.394531v33.574219c0 4.636718 3.757812 8.394531 8.394531 8.394531h86.871094c9.222656 26.191406 37.929687 39.945312 64.121094 30.722656 14.367187-5.058594 25.667969-16.355469 30.726562-30.722656h137.230469c0 4.632812 3.757812 8.390625 8.394531 8.390625h40.390625c13.839844 24.050781 44.558594 32.324218 68.605469 18.480468 7.683594-4.421874 14.0625-10.796874 18.484375-18.480468h40.386719c4.636719 0 8.394531-3.757813 8.394531-8.390625v-100.722657c0-.742187-.097656-1.476562-.292969-2.191406zm-22.714843-6.203125h-102.894532v-50.359375l58.578125-.042968 14.957031.042968 1.371094 2.347656zm-48.957032-83.933593 9.777344 16.785156h-72.105469c-4.636719 0-8.394531 3.757812-8.394531 8.394531v67.148437c0 4.636719 3.757812 8.390626 8.394531 8.390626h117.507813v41.96875h-38.105469c-18.417969-20.675782-50.109375-22.503907-70.785156-4.085938-1.4375 1.28125-2.804688 2.648438-4.085938 4.085938h-38.105469v-142.6875zm-112.691406-8.394532v92.328125h-125.902344v-134.292969h33.574219v33.570313c0 4.636719 3.757813 8.394531 8.394531 8.394531h33.574219c4.636719 0 8.394531-3.757812 8.394531-8.394531v-33.570313h41.964844zm-58.753906-41.964844v25.179688h-16.789063v-25.179688zm-142.6875 0v25.179688h-16.789063v-25.179688zm-67.148438 0h33.574219v33.570313c0 4.636719 3.757813 8.394531 8.394531 8.394531h33.570313c4.636719 0 8.394531-3.757812 8.394531-8.394531v-33.570313h41.96875v134.292969h-125.902344zm-16.785156 151.078126h285.375v41.96875h-147.21875c-18.417969-20.675782-50.109375-22.503907-70.785156-4.085938-1.4375 1.28125-2.804688 2.648438-4.085938 4.085938h-63.285156zm-25.179688 58.753906h16.785157v16.789062h-16.785157zm33.570313 16.789062v-16.789062h44.90625c-1.929687 5.390625-2.921875 11.066406-2.9375 16.789062zm92.328125 33.574219c-18.542969 0-33.574219-15.03125-33.574219-33.574219 0-18.542968 15.03125-33.574218 33.574219-33.574218s33.574219 15.03125 33.574219 33.574218c0 18.542969-15.03125 33.574219-33.574219 33.574219zm50.363281-33.574219c-.015625-5.722656-1.011719-11.398437-2.941406-16.789062h137.234375v16.789062zm151.082031 8.394532v-25.179688h28.117188c-2.9375 8.050781-3.691406 16.738281-2.183594 25.179688zm75.539063 25.179687c-18.542969 0-33.574219-15.03125-33.574219-33.574219 0-18.542968 15.03125-33.574218 33.574219-33.574218s33.574219 15.03125 33.574219 33.574218c0 18.542969-15.03125 33.574219-33.574219 33.574219zm75.539063-25.179687h-25.933594c1.503906-8.441407.753906-17.128907-2.183594-25.179688h28.117188zm0 0" fill="url(#a)"/></svg>
